<?xml version="1.0" standalone="no"?>
<!DOCTYPE svg PUBLIC "-//W3C//DTD SVG 20010904//EN"
 "http://www.w3.org/TR/2001/REC-SVG-20010904/DTD/svg10.dtd">
<svg version="1.0" xmlns="http://www.w3.org/2000/svg"
 width="700.000000pt" height="700.000000pt" viewBox="0 0 700.000000 700.000000"
 preserveAspectRatio="xMidYMid meet">
<metadata>
Created by potrace 1.14, written by Peter Selinger 2001-2017
</metadata>
<g transform="translate(0.000000,700.000000) scale(0.100000,-0.100000)"
fill="#000000" stroke="none">
<path d="M3280 6994 c-19 -2 -84 -9 -145 -14 -410 -40 -846 -169 -1225 -362
-343 -176 -628 -387 -908 -672 -561 -572 -883 -1252 -984 -2081 -7 -56 -12
-217 -12 -365 0 -268 7 -362 45 -588 96 -575 348 -1138 716 -1597 115 -144
339 -373 483 -494 537 -451 1157 -715 1885 -803 135 -16 590 -16 735 1 512 58
1002 222 1426 478 635 383 1136 957 1422 1628 255 599 339 1259 242 1898 -93
610 -340 1176 -726 1662 -116 147 -431 459 -574 569 -523 404 -1101 642 -1750
722 -117 15 -553 27 -630 18z m-260 -2050 c-38 -47 -70 -89 -70 -94 0 -5 518
-649 1151 -1432 633 -783 1156 -1429 1161 -1435 8 -10 -127 -13 -671 -13
l-682 0 71 86 c39 48 70 92 68 98 -4 16 -539 676 -548 676 -4 0 -164 -193
-355 -430 l-348 -430 -535 0 c-426 0 -532 3 -524 13 5 6 282 349 616 761 333
413 606 753 606 756 0 3 -262 330 -582 726 -321 396 -598 739 -616 762 l-34
42 681 0 681 0 -70 -86z m2218 44 c-19 -24 -245 -304 -503 -623 -257 -319
-471 -584 -475 -588 -4 -4 -127 141 -274 323 l-267 331 58 72 c32 40 141 175
242 300 l184 227 534 0 535 0 -34 -42z"/>
</g>
</svg>
